<svg width="44" height="36" xmlns="http://www.w3.org/2000/svg"><g fill="#85CACD" fill-rule="nonzero"><path d="M10.235 36c5.666 0 10.236-4.452 10.236-10.018 0-5.566-4.57-10.204-10.236-10.204-1.827 0-3.472.557-5.117 1.484 2.741-5.009 7.676-7.42 14.804-7.42V7.059C8.042 7.244 0 15.036 0 25.982 0 31.548 4.57 36 10.235 36zM33.53 28.941c5.665 0 10.235-4.452 10.235-10.018 0-5.566-4.57-10.204-10.236-10.204-1.827 0-3.472.557-5.117 1.485 2.741-5.01 7.676-7.421 14.804-7.421V0c-11.88.186-19.922 7.977-19.922 18.923 0 5.566 4.57 10.018 10.235 10.018z"/></g></svg>